<svg width="21" height="22" viewBox="0 0 21 22" fill="none" xmlns="http://www.w3.org/2000/svg">
<g clip-path="url(#clip0_949_1393)">
<path d="M15.6426 0.254639H5.01758C2.42874 0.254639 0.330078 2.45824 0.330078 5.17651V16.3328C0.330078 19.051 2.42874 21.2546 5.01758 21.2546H15.6426C18.2314 21.2546 20.3301 19.051 20.3301 16.3328V5.17651C20.3301 2.45824 18.2314 0.254639 15.6426 0.254639Z" fill="white"/>
<path d="M15.6426 0.254639H5.01758C2.42874 0.254639 0.330078 2.45824 0.330078 5.17651V16.3328C0.330078 19.051 2.42874 21.2546 5.01758 21.2546H15.6426C18.2314 21.2546 20.3301 19.051 20.3301 16.3328V5.17651C20.3301 2.45824 18.2314 0.254639 15.6426 0.254639Z" fill="#0A66C2"/>
<path d="M14.7608 18.1116H17.0475C17.2201 18.1116 17.36 17.9648 17.36 17.7836L17.3612 12.7106C17.3612 10.0591 16.817 8.02101 13.866 8.02101C12.7442 7.97727 11.6863 8.58444 11.1155 9.59835C11.111 9.60639 11.1028 9.61131 11.0939 9.61131C11.0802 9.61131 11.069 9.59958 11.069 9.58514V8.59396C11.069 8.41276 10.9292 8.26585 10.7565 8.26585H8.58643C8.41385 8.26585 8.27393 8.41276 8.27393 8.59396V17.7831C8.27393 17.9644 8.41385 18.1112 8.58643 18.1112H10.873C11.0456 18.1112 11.1855 17.9644 11.1855 17.7831V13.2408C11.1855 11.9564 11.4175 10.7126 12.934 10.7126C14.4289 10.7126 14.4483 12.1823 14.4483 13.324V17.7835C14.4483 17.9647 14.5882 18.1116 14.7608 18.1116Z" fill="white"/>
<path d="M3.29883 5.14596C3.29883 6.11922 4.06191 6.92 4.98884 6.92C5.91558 6.91991 6.67813 6.11867 6.67813 5.14559C6.67795 4.17251 5.91531 3.37183 4.98848 3.37183C4.06156 3.37183 3.29883 4.1727 3.29883 5.14596Z" fill="white"/>
<path d="M3.84229 18.1117H6.1319C6.3045 18.1117 6.4444 17.9647 6.4444 17.7835V8.59398C6.4444 8.41278 6.3045 8.26587 6.1319 8.26587H3.84229C3.6697 8.26587 3.52979 8.41278 3.52979 8.59398V17.7835C3.52979 17.9647 3.6697 18.1117 3.84229 18.1117Z" fill="white"/>
</g>
<defs>
<clipPath id="clip0_949_1393">
<rect width="20" height="21" fill="white" transform="translate(0.330078 0.254639)"/>
</clipPath>
</defs>
</svg>
